<svg width="134" height="65" viewBox="0 0 134 65" fill="none" xmlns="http://www.w3.org/2000/svg">
<g clip-path="url(#clip0_54_24)">
<path d="M89.4842 58.2995H89.3111C77.2352 58.2995 65.5321 57.624 54.5213 56.2866C43.8967 54.9964 34.3504 53.1457 26.1689 50.795C17.9807 48.4377 11.55 45.6953 7.04983 42.6354C2.37657 39.4405 0 36.0361 0 32.517C0 28.9978 2.37657 25.5934 7.05649 22.4052C11.55 19.3454 17.9807 16.5962 26.1756 14.2456C34.3638 11.8883 43.9033 10.0442 54.528 8.7541C65.5321 7.41668 77.2352 6.74121 89.3178 6.74121H89.4909V58.2995H89.4842ZM89.1447 7.0857C65.3524 7.09921 43.0312 9.76054 26.2688 14.5766C18.1139 16.9205 11.7164 19.6493 7.24954 22.6957C2.66948 25.8163 0.33951 29.1261 0.33951 32.517C0.33951 35.9078 2.66283 39.2176 7.24954 42.3382C11.7164 45.3778 18.1139 48.1067 26.2688 50.4573C43.0312 55.2801 65.3524 57.9347 89.1447 57.9482V7.0857Z" fill="black"/>
<path d="M19.4919 65H19.3188V0H19.4919C34.9829 0 49.9879 0.857841 64.1009 2.53975C77.7279 4.16762 89.9635 6.49797 100.462 9.47002C110.96 12.4421 119.208 15.9072 124.966 19.7709C130.958 23.7899 134 28.0723 134 32.4966C134 36.9209 130.958 41.2034 124.966 45.2224C119.208 49.086 110.96 52.5512 100.462 55.5232C89.9635 58.4953 77.7279 60.8256 64.1009 62.4535C49.9879 64.1422 34.9762 64.9932 19.4919 64.9932V65ZM19.665 0.344487V64.6488C50.2009 64.6352 78.8596 61.2782 100.375 55.1855C110.84 52.2202 119.055 48.7753 124.78 44.9319C130.671 40.9805 133.66 36.7993 133.66 32.4966C133.66 28.1939 130.671 24.006 124.78 20.0613C119.048 16.2179 110.84 12.773 100.375 9.80775C78.8596 3.72181 50.2009 0.357996 19.665 0.344487Z" fill="black"/>
<path d="M119.601 48.4106H19.4919V48.0661H119.261L119.354 16.9812H19.4919V16.6367H119.694L119.601 48.4106Z" fill="black"/>
<path d="M34.3904 26.2351V29.403L34.3238 29.5246C33.9177 30.2541 33.3519 30.8958 32.6795 31.3821C31.7475 32.0509 30.6558 32.4088 29.5241 32.4088C26.4685 32.4088 23.9787 29.8286 23.9787 26.6539C23.9787 23.4792 26.4618 20.8989 29.5241 20.8989C31.1151 20.8989 32.6329 21.6082 33.6847 22.851L33.8179 23.0064L33.039 23.6886L32.9059 23.5265C32.0471 22.5133 30.8155 21.9324 29.5241 21.9324C27.0343 21.9324 25.0106 24.0466 25.0106 26.6471C25.0106 29.2477 27.0343 31.3619 29.5241 31.3619C30.4427 31.3619 31.3281 31.0714 32.087 30.5311C32.593 30.1663 33.039 29.68 33.3652 29.1261V27.2821H31.6144V26.2351H34.397H34.3904Z" fill="black"/>
<path d="M44.6489 31.247V32.2939H36.3875V21.0339H37.4193V31.247H44.6489Z" fill="black"/>
<path d="M55.9127 26.6404C55.9127 29.8218 53.363 32.4021 50.2342 32.4021C47.1054 32.4021 44.5557 29.8151 44.5557 26.6404C44.5557 23.4657 47.1054 20.8787 50.2342 20.8787C53.363 20.8787 55.9127 23.4657 55.9127 26.6404ZM54.8875 26.6404C54.8875 24.0398 52.8038 21.9189 50.2342 21.9189C47.6646 21.9189 45.5809 24.0331 45.5809 26.6404C45.5809 29.2477 47.6646 31.3619 50.2342 31.3619C52.8038 31.3619 54.8875 29.2477 54.8875 26.6404Z" fill="black"/>
<path d="M65.8916 29.2207C65.8916 30.9161 64.5336 32.2941 62.8626 32.2941H57.8499V21.0476H62.8626C64.5336 21.0476 65.8916 22.4256 65.8916 24.121C65.8916 25.1544 65.3857 26.1001 64.5535 26.6742C65.3857 27.2416 65.8916 28.1873 65.8916 29.2275V29.2207ZM64.8598 24.121C64.8598 22.9997 63.9611 22.0946 62.8626 22.0946H58.8817V26.1474H62.8626C63.9677 26.1474 64.8598 25.2355 64.8598 24.121ZM64.8598 29.2207C64.8598 28.0995 63.9611 27.1943 62.8626 27.1943H58.8817V31.2471H62.8626C63.9677 31.2471 64.8598 30.3352 64.8598 29.2207Z" fill="black"/>
<path d="M75.8972 32.2669H74.7988L73.494 28.6262H69.3L67.9952 32.2669H66.8968L70.9177 21.0339H71.863L75.8839 32.2669H75.8972ZM73.1212 27.5792L71.397 22.7766L69.6795 27.5792H73.1212Z" fill="black"/>
<path d="M85.683 31.247V32.2939H77.4216V21.0339H78.4535V31.247H85.683Z" fill="black"/>
<path d="M30.4095 41.5816L30.3429 41.6964C29.7038 42.8042 28.6054 43.4662 27.3872 43.4662C25.4766 43.4662 23.9188 41.8045 23.9188 39.7579C23.9188 37.7112 25.4699 36.0496 27.3872 36.0496C28.2459 36.0496 29.0714 36.3873 29.7038 37.002L29.797 37.0965L29.3377 37.5829L29.2445 37.4883C28.7319 36.9952 28.0728 36.725 27.3805 36.725C25.8361 36.725 24.5779 38.0895 24.5779 39.7579C24.5779 41.4263 25.8361 42.7907 27.3805 42.7907C28.3524 42.7907 29.2445 42.2571 29.7637 41.3587L29.8303 41.2439L30.4028 41.5816H30.4095Z" fill="black"/>
<path d="M38.2581 39.7512C38.2581 41.7978 36.6138 43.4662 34.5967 43.4662C32.5797 43.4662 30.9354 41.7978 30.9354 39.7512C30.9354 37.7045 32.5797 36.0361 34.5967 36.0361C36.6138 36.0361 38.2581 37.7045 38.2581 39.7512ZM37.5924 39.7512C37.5924 38.076 36.2477 36.7116 34.5967 36.7116C32.9458 36.7116 31.6011 38.076 31.6011 39.7512C31.6011 41.4263 32.9458 42.7908 34.5967 42.7908C36.2477 42.7908 37.5924 41.4263 37.5924 39.7512Z" fill="black"/>
<path d="M45.0284 36.1375V43.3717H44.5158L40.1687 37.4884V43.3717H39.503V36.1375H39.9956L44.3627 42.041V36.1375H45.0284Z" fill="black"/>
<path d="M53.4961 36.1375L50.0212 43.3717H49.4087L45.9404 36.1375H46.6793L49.7149 42.4666L52.7506 36.1375H53.4895H53.4961Z" fill="black"/>
<path d="M55.0739 36.8197V39.4337H57.8698V40.1092H55.0739V42.7232H58.1095V43.3987H54.4082V36.1577H58.1095V36.8332H55.0739V36.8197Z" fill="black"/>
<path d="M65.5055 41.5816L65.4389 41.6964C64.7998 42.8042 63.7014 43.4662 62.4832 43.4662C60.5726 43.4662 59.0149 41.8045 59.0149 39.7579C59.0149 37.7112 60.566 36.0496 62.4832 36.0496C63.342 36.0496 64.1674 36.3873 64.7998 37.002L64.893 37.0965L64.4337 37.5829L64.3405 37.4883C63.8279 36.9952 63.1689 36.725 62.4765 36.725C60.9321 36.725 59.6739 38.0895 59.6739 39.7579C59.6739 41.4263 60.9321 42.7907 62.4765 42.7907C63.4485 42.7907 64.3405 42.2571 64.8598 41.3587L64.9263 41.2439L65.4988 41.5816H65.5055Z" fill="black"/>
<path d="M68.8806 36.8197L68.9538 43.3717H68.2881L68.2149 36.8264L65.8051 36.8534V36.178L71.4835 36.1172V36.7927L68.8873 36.8197H68.8806Z" fill="black"/>
<path d="M78.7397 39.7512C78.7397 41.7978 77.0954 43.4662 75.0783 43.4662C73.0613 43.4662 71.417 41.7978 71.417 39.7512C71.417 37.7045 73.0613 36.0361 75.0783 36.0361C77.0954 36.0361 78.7397 37.7045 78.7397 39.7512ZM78.074 39.7512C78.074 38.076 76.7293 36.7116 75.0783 36.7116C73.4274 36.7116 72.0827 38.076 72.0827 39.7512C72.0827 41.4263 73.4274 42.7908 75.0783 42.7908C76.7293 42.7908 78.074 41.4263 78.074 39.7512Z" fill="black"/>
<path d="M85.8894 43.3718H85.0839L83.3997 40.9131C83.3131 40.9198 83.2332 40.9266 83.1467 40.9266H80.6436V43.3718H79.9779V36.1443H83.14C84.4382 36.1443 85.4966 37.2183 85.4966 38.5354C85.4966 39.4946 84.9308 40.3524 84.072 40.7307L85.8761 43.3718H85.8894ZM80.6503 40.2511H83.1534C84.0853 40.2511 84.8442 39.4811 84.8442 38.5354C84.8442 37.5898 84.0853 36.8198 83.1534 36.8198H80.6503V40.2511Z" fill="black"/>
</g>
<defs>
<clipPath id="clip0_54_24">
<rect width="134" height="65" fill="white"/>
</clipPath>
</defs>
</svg>
