<svg width="692" height="331" viewBox="0 0 692 331" fill="none" xmlns="http://www.w3.org/2000/svg">
<g clip-path="url(#clip0_7_81)">
<path d="M462.113 296.878H461.219C398.857 296.878 338.42 293.439 281.558 286.628C226.69 280.058 177.392 270.634 135.141 258.664C92.8557 246.659 59.6463 232.694 36.4066 217.112C12.273 200.843 0 183.507 0 165.586C0 147.665 12.273 130.329 36.441 114.094C59.6463 98.5123 92.8557 84.5129 135.175 72.5428C177.461 60.5383 226.725 51.148 281.592 44.5782C338.42 37.7677 398.857 34.328 461.253 34.328H462.147V296.878H462.113ZM460.359 36.0822C337.491 36.151 222.221 49.7034 135.657 74.2282C93.5432 86.1639 60.5057 100.06 37.4379 115.573C13.7857 131.464 1.75329 148.319 1.75329 165.586C1.75329 182.853 13.7513 199.708 37.4379 215.599C60.5057 231.077 93.5432 244.974 135.657 256.944C222.221 281.503 337.491 295.021 460.359 295.09V36.0822Z" fill="black"/>
<path d="M100.66 331H99.7657V0H100.66C180.658 0 258.146 4.36839 331.028 12.9332C401.401 21.2228 464.588 33.0897 518.802 48.2243C573.017 63.3588 615.611 81.0044 645.349 100.679C676.289 121.145 692 142.953 692 165.483C692 188.013 676.289 209.82 645.349 230.286C615.611 249.961 573.017 267.607 518.802 282.741C464.588 297.876 401.401 309.743 331.028 318.032C258.146 326.632 180.623 330.966 100.66 330.966V331ZM101.553 1.75423V329.211C259.246 329.143 407.245 312.047 518.355 281.021C572.398 265.921 614.821 248.379 644.386 228.807C674.811 208.685 690.247 187.394 690.247 165.483C690.247 143.572 674.811 122.246 644.386 102.158C614.786 82.5866 572.398 65.0443 518.355 49.9441C407.245 18.9526 259.246 1.82303 101.553 1.75423Z" fill="black"/>
<path d="M617.64 246.522H100.66V244.767H615.887L616.368 86.4735H100.66V84.7192H618.121L617.64 246.522Z" fill="black"/>
<path d="M177.598 133.597V149.729L177.254 150.348C175.157 154.063 172.235 157.331 168.763 159.807C163.95 163.213 158.312 165.036 152.468 165.036C136.688 165.036 123.83 151.896 123.83 135.729C123.83 119.563 136.654 106.423 152.468 106.423C160.684 106.423 168.522 110.035 173.954 116.364L174.642 117.155L170.619 120.629L169.932 119.804C165.497 114.644 159.137 111.686 152.468 111.686C139.61 111.686 129.159 122.452 129.159 135.695C129.159 148.938 139.61 159.704 152.468 159.704C157.212 159.704 161.784 158.225 165.703 155.473C168.316 153.616 170.619 151.139 172.304 148.319V138.928H163.262V133.597H177.632H177.598Z" fill="black"/>
<path d="M230.575 159.119V164.451H187.912V107.111H193.24V159.119H230.575Z" fill="black"/>
<path d="M288.743 135.661C288.743 151.862 275.576 165.001 259.418 165.001C243.261 165.001 230.094 151.827 230.094 135.661C230.094 119.494 243.261 106.32 259.418 106.32C275.576 106.32 288.743 119.494 288.743 135.661ZM283.449 135.661C283.449 122.418 272.688 111.617 259.418 111.617C246.148 111.617 235.388 122.384 235.388 135.661C235.388 148.938 246.148 159.704 259.418 159.704C272.688 159.704 283.449 148.938 283.449 135.661Z" fill="black"/>
<path d="M340.276 148.8C340.276 157.434 333.263 164.451 324.634 164.451H298.747V107.18H324.634C333.263 107.18 340.276 114.197 340.276 122.831C340.276 128.093 337.663 132.909 333.366 135.833C337.663 138.722 340.276 143.538 340.276 148.835V148.8ZM334.947 122.831C334.947 117.121 330.306 112.512 324.634 112.512H304.076V133.15H324.634C330.341 133.15 334.947 128.506 334.947 122.831ZM334.947 148.8C334.947 143.09 330.306 138.481 324.634 138.481H304.076V159.119H324.634C330.341 159.119 334.947 154.476 334.947 148.8Z" fill="black"/>
<path d="M391.947 164.313H386.274L379.536 145.773H357.878L351.14 164.313H345.467L366.232 107.111H371.113L391.878 164.313H391.947ZM377.611 140.442L368.707 115.986L359.837 140.442H377.611Z" fill="black"/>
<path d="M442.483 159.119V164.451H399.819V107.111H405.148V159.119H442.483Z" fill="black"/>
<path d="M157.04 211.746L156.696 212.331C153.396 217.972 147.723 221.343 141.432 221.343C131.566 221.343 123.521 212.881 123.521 202.459C123.521 192.037 131.531 183.575 141.432 183.575C145.867 183.575 150.13 185.295 153.396 188.425L153.877 188.907L151.505 191.384L151.024 190.902C148.377 188.391 144.973 187.015 141.398 187.015C133.422 187.015 126.925 193.963 126.925 202.459C126.925 210.955 133.422 217.903 141.398 217.903C146.417 217.903 151.024 215.186 153.705 210.611L154.049 210.027L157.006 211.746H157.04Z" fill="black"/>
<path d="M197.572 202.425C197.572 212.847 189.08 221.343 178.664 221.343C168.247 221.343 159.756 212.847 159.756 202.425C159.756 192.003 168.247 183.507 178.664 183.507C189.08 183.507 197.572 192.003 197.572 202.425ZM194.134 202.425C194.134 193.894 187.19 186.946 178.664 186.946C170.138 186.946 163.194 193.894 163.194 202.425C163.194 210.955 170.138 217.903 178.664 217.903C187.19 217.903 194.134 210.955 194.134 202.425Z" fill="black"/>
<path d="M232.535 184.022V220.861H229.887L207.438 190.902V220.861H204.001V184.022H206.545L229.097 214.085V184.022H232.535Z" fill="black"/>
<path d="M276.264 184.022L258.318 220.861H255.155L237.244 184.022H241.06L256.737 216.252L272.413 184.022H276.229H276.264Z" fill="black"/>
<path d="M284.411 187.497V200.808H298.85V204.248H284.411V217.559H300.088V220.999H280.974V184.126H300.088V187.565H284.411V187.497Z" fill="black"/>
<path d="M338.282 211.746L337.938 212.331C334.638 217.972 328.966 221.343 322.674 221.343C312.808 221.343 304.763 212.881 304.763 202.459C304.763 192.037 312.773 183.575 322.674 183.575C327.109 183.575 331.372 185.295 334.638 188.425L335.119 188.907L332.747 191.384L332.266 190.902C329.619 188.391 326.215 187.015 322.64 187.015C314.664 187.015 308.167 193.963 308.167 202.459C308.167 210.955 314.664 217.903 322.64 217.903C327.659 217.903 332.266 215.186 334.947 210.611L335.291 210.027L338.248 211.746H338.282Z" fill="black"/>
<path d="M355.712 187.497L356.09 220.862H352.652L352.274 187.531L339.829 187.669V184.229L369.154 183.919V187.359L355.746 187.497H355.712Z" fill="black"/>
<path d="M406.626 202.425C406.626 212.847 398.135 221.343 387.718 221.343C377.301 221.343 368.81 212.847 368.81 202.425C368.81 192.003 377.301 183.507 387.718 183.507C398.135 183.507 406.626 192.003 406.626 202.425ZM403.188 202.425C403.188 193.894 396.244 186.946 387.718 186.946C379.192 186.946 372.248 193.894 372.248 202.425C372.248 210.955 379.192 217.903 387.718 217.903C396.244 217.903 403.188 210.955 403.188 202.425Z" fill="black"/>
<path d="M443.548 220.861H439.389L430.691 208.341C430.244 208.375 429.831 208.41 429.384 208.41H416.458V220.861H413.02V184.057H429.35C436.054 184.057 441.52 189.526 441.52 196.233C441.52 201.118 438.598 205.486 434.163 207.412L443.48 220.861H443.548ZM416.493 204.97H429.419C434.232 204.97 438.151 201.049 438.151 196.233C438.151 191.418 434.232 187.497 429.419 187.497H416.493V204.97Z" fill="black"/>
</g>
<defs>
<clipPath id="clip0_7_81">
<rect width="692" height="331" fill="white"/>
</clipPath>
</defs>
</svg>
