<?xml version="1.0" encoding="utf-8"?>
<!-- Generator: Adobe Illustrator 26.4.1, SVG Export Plug-In . SVG Version: 6.00 Build 0)  -->
<svg version="1.1" id="Слой_1" xmlns="http://www.w3.org/2000/svg" xmlns:xlink="http://www.w3.org/1999/xlink" x="0px" y="0px"
	 viewBox="0 0 367 176" style="enable-background:new 0 0 367 176;" xml:space="preserve">
<style type="text/css">
	.st0{fill:#FFFFFF;}
	.st1{fill:none;stroke:#FFFFFF;stroke-miterlimit:10;}
</style>
<path class="st0" d="M235.7,91.6l-0.7,0.5l-1.8-2.5c-0.4,0.4-0.9,0.7-1.4,0.9c-0.8,0.4-1.7,0.6-2.6,0.4c-0.5-0.1-0.9-0.3-1.4-0.6
	c-0.8-0.6-1.2-1.4-1.2-2.3c0.1-1.1,1-2.2,2.6-3l0.5-0.3l-0.6-0.8c-0.4-0.6-0.5-1.4-0.1-2c0.4-0.7,1.3-1,2.1-0.8s1.5,0.8,1.6,1.6
	c0.1,0.7-0.2,1.4-0.9,1.7l-0.9,0.5l2.2,3.1c0.2-0.3,0.5-0.5,0.7-0.8l0.1-0.1l0.7,0.5l-0.1,0.1c-0.3,0.4-0.6,0.7-0.9,1L235.7,91.6z
	 M232.6,88.9l-2.4-3.3l-0.6,0.3c-1.3,0.6-2,1.4-2.1,2.2c0,0.5,0.2,1.1,0.8,1.5c0.3,0.2,0.6,0.4,1,0.4c0.7,0.2,1.4,0.1,2-0.3
	C231.8,89.6,232.2,89.3,232.6,88.9L232.6,88.9z M229.9,83.6l0.6,0.9l1-0.5c0.3-0.2,0.5-0.5,0.4-0.8c-0.1-0.4-0.4-0.8-0.9-0.9
	c-0.5-0.1-1,0.1-1.2,0.4C229.7,82.9,229.7,83.3,229.9,83.6L229.9,83.6z"/>
<path class="st0" d="M84.8,65c0,4.4-3.6,7.9-7.9,7.9h-4.3V57h4.3C81.3,57,84.8,60.6,84.8,65z M83.4,65c0-3.6-2.9-6.4-6.4-6.4h-2.9
	v12.9h2.9C80.5,71.4,83.4,68.5,83.4,65L83.4,65z"/>
<path class="st0" d="M89.1,58.5v5.7h6.2v1.5h-6.2v5.7h6.7v1.5h-8.2V57h8.2v1.5H89.1z"/>
<path class="st0" d="M113.8,57l-7.7,15.8h-1.4L97,57h1.6l6.7,13.8l6.7-13.8H113.8L113.8,57z"/>
<path class="st0" d="M117.3,58.5v5.7h6.2v1.5h-6.2v5.7h6.7v1.5h-8.2V57h8.2v1.5H117.3z"/>
<path class="st0" d="M138.6,71.4v1.5h-11.8V57h1.5v14.4H138.6z"/>
<path class="st0" d="M154.7,64.9c0,4.5-3.6,8.1-8.1,8.1c-4.5,0-8.1-3.6-8.1-8.1c0-4.5,3.6-8.1,8.1-8.1
	C151,56.8,154.7,60.4,154.7,64.9z M153.2,64.9c0-3.7-3-6.6-6.6-6.6c-3.7,0-6.6,3-6.6,6.6c0,3.7,3,6.6,6.6,6.6
	C150.2,71.6,153.2,68.6,153.2,64.9z"/>
<path class="st0" d="M170,62.7c0,3.1-2.5,5.6-5.6,5.6l-5.5,0v4.5h-1.5V57.1h1.5h5.5C167.5,57.1,170,59.6,170,62.7L170,62.7z
	 M164.4,66.8c2.3,0,4.1-1.9,4.1-4.1c0-2.3-1.9-4.1-4.1-4.1h-5.5v8.3L164.4,66.8L164.4,66.8z"/>
<path class="st0" d="M186.1,57v15.8h-1.5V61.7l-4.4,11.2h-1.7L174,61.7v11.2h-1.5V57h1.2l5.5,14l5.5-14H186.1z"/>
<path class="st0" d="M191.1,58.5v5.7h6.2v1.5h-6.2v5.7h6.7v1.5h-8.2V57h8.2v1.5H191.1z"/>
<path class="st0" d="M212.8,57v15.8h-1.1L202,60v12.9h-1.5V57h1.1l9.7,12.9V57H212.8z"/>
<path class="st0" d="M221.7,58.5l0.2,14.3l-1.5,0l-0.2-14.3l-5.4,0.1l0-1.5l12.6-0.1l0,1.5L221.7,58.5z"/>
<path class="st0" d="M78.9,83.3c0,1.3-1,2.3-2.3,2.3h-3.8v-8.4h3.8c1.3,0,2.3,1,2.3,2.3c0,0.8-0.4,1.5-1,1.9
	C78.5,81.9,78.9,82.6,78.9,83.3z M78.1,79.6c0-0.8-0.7-1.5-1.5-1.5h-3v3h3C77.4,81.1,78.1,80.4,78.1,79.6L78.1,79.6z M78.1,83.3
	c0-0.8-0.7-1.5-1.5-1.5h-3v3h3C77.4,84.8,78.1,84.2,78.1,83.3L78.1,83.3z"/>
<path class="st0" d="M95.6,85.6v-8.3h0.8v8.3H95.6z"/>
<path class="st0" d="M94,83.4c0,1.3-1.3,2.3-2.9,2.3c-1,0-1.9-0.4-2.5-1.1c-0.1-0.1-0.2-0.3-0.3-0.5L88.3,84l0.7-0.3l0.1,0.1
	c0,0.1,0.1,0.2,0.2,0.3c0.4,0.5,1.1,0.8,1.9,0.8c1.2,0,2.2-0.7,2.2-1.5c0-1-0.7-1.2-2.2-1.5c-1.2-0.3-2.8-0.6-2.8-2.3v-0.1
	c0-1.3,1.3-2.3,2.9-2.3c1.1,0,2,0.5,2.6,1.2l0.1,0.1l-0.6,0.5l-0.1-0.1c-0.4-0.5-1.1-0.9-1.9-0.9c-1.2,0-2.2,0.7-2.2,1.5v0.1
	c0,0.9,0.7,1.2,2.2,1.5C92.5,81.3,94,81.7,94,83.4L94,83.4z"/>
<path class="st0" d="M86.7,77.3v5.2c0,1.8-1.4,3.3-3.2,3.3c-1.8,0-3.2-1.5-3.2-3.3v-5.2h0.8v5.2c0,1.4,1.1,2.5,2.5,2.5
	c1.4,0,2.5-1.1,2.5-2.5v-5.2H86.7z"/>
<path class="st0" d="M104.5,77.3v8.3h-0.6l-5.1-6.8v6.8h-0.8v-8.3h0.6l5.1,6.8v-6.8H104.5z"/>
<path class="st0" d="M107.2,78v3h3.3v0.8h-3.3v3h3.6v0.8h-4.3v-8.4h4.3v0.8L107.2,78L107.2,78z"/>
<path class="st0" d="M117.5,83.4c0,1.3-1.3,2.3-2.9,2.3c-1,0-1.9-0.4-2.5-1.1c-0.1-0.1-0.2-0.3-0.3-0.5l-0.1-0.1l0.7-0.3l0.1,0.1
	c0,0.1,0.1,0.2,0.2,0.3c0.4,0.5,1.1,0.8,1.9,0.8c1.2,0,2.2-0.7,2.2-1.5c0-1-0.7-1.2-2.2-1.5c-1.2-0.3-2.8-0.6-2.8-2.3v-0.1
	c0-1.3,1.3-2.3,2.9-2.3c1.1,0,2,0.5,2.6,1.2l0.1,0.1l-0.6,0.5l-0.1-0.1c-0.4-0.5-1.1-0.9-1.9-0.9c-1.2,0-2.2,0.7-2.2,1.5v0.1
	c0,0.9,0.7,1.2,2.2,1.5C115.9,81.3,117.5,81.7,117.5,83.4L117.5,83.4z"/>
<path class="st0" d="M124.3,83.4c0,1.3-1.3,2.3-2.9,2.3c-1,0-1.9-0.4-2.5-1.1c-0.1-0.1-0.2-0.3-0.3-0.5l-0.1-0.1l0.7-0.3l0.1,0.1
	c0,0.1,0.1,0.2,0.2,0.3c0.4,0.5,1.1,0.8,1.9,0.8c1.2,0,2.2-0.7,2.2-1.5c0-1-0.7-1.2-2.2-1.5c-1.2-0.3-2.8-0.6-2.8-2.3v-0.1
	c0-1.3,1.3-2.3,2.9-2.3c1.1,0,2,0.5,2.6,1.2l0.1,0.1l-0.6,0.5l-0.1-0.1c-0.4-0.5-1.1-0.9-1.9-0.9c-1.2,0-2.2,0.7-2.2,1.5v0.1
	c0,0.9,0.7,1.2,2.2,1.5C122.8,81.3,124.3,81.7,124.3,83.4L124.3,83.4z"/>
<path class="st0" d="M134.4,83.4c0,1.3-1.3,2.3-2.9,2.3c-1,0-1.9-0.4-2.5-1.1c-0.1-0.1-0.2-0.3-0.3-0.5l-0.1-0.1l0.7-0.3l0.1,0.1
	c0,0.1,0.1,0.2,0.2,0.3c0.4,0.5,1.1,0.8,1.9,0.8c1.2,0,2.2-0.7,2.2-1.5c0-1-0.7-1.2-2.2-1.5c-1.2-0.3-2.8-0.6-2.8-2.3v-0.1
	c0-1.3,1.3-2.3,2.9-2.3c1.1,0,2,0.5,2.6,1.2l0.1,0.1l-0.6,0.5l-0.1-0.1c-0.4-0.5-1.1-0.9-1.9-0.9c-1.2,0-2.2,0.7-2.2,1.5v0.1
	c0,0.9,0.7,1.2,2.2,1.5C132.8,81.3,134.4,81.7,134.4,83.4L134.4,83.4z"/>
<path class="st0" d="M142.1,77.3l-3.3,4.3v4H138v-4l-3.3-4.3h1l2.7,3.5l2.7-3.5H142.1z"/>
<path class="st0" d="M148.2,83.4c0,1.3-1.3,2.3-2.9,2.3c-1,0-1.9-0.4-2.5-1.1c-0.1-0.1-0.2-0.3-0.3-0.5l-0.1-0.1l0.7-0.3l0.1,0.1
	c0,0.1,0.1,0.2,0.2,0.3c0.4,0.5,1.1,0.8,1.9,0.8c1.2,0,2.2-0.7,2.2-1.5c0-1-0.7-1.2-2.2-1.5c-1.2-0.3-2.8-0.6-2.8-2.3v-0.1
	c0-1.3,1.3-2.3,2.9-2.3c1.1,0,2,0.5,2.6,1.2l0.1,0.1l-0.6,0.5l-0.1-0.1c-0.4-0.5-1.1-0.9-1.9-0.9c-1.2,0-2.2,0.7-2.2,1.5v0.1
	c0,0.9,0.7,1.2,2.2,1.5C146.6,81.3,148.2,81.7,148.2,83.4L148.2,83.4z"/>
<path class="st0" d="M152.4,78l0.1,7.6l-0.8,0l-0.1-7.6l-2.8,0l0-0.8l6.6-0.1l0,0.8L152.4,78z"/>
<path class="st0" d="M157.3,78v3h3.3v0.8h-3.3v3h3.6v0.8h-4.3v-8.4h4.3v0.8L157.3,78L157.3,78z"/>
<path class="st0" d="M169.5,77.3v8.3h-0.8v-5.9l-2.3,5.9h-0.9l-2.3-5.9v5.9h-0.8v-8.3h0.6l2.9,7.4l2.9-7.4H169.5z"/>
<path class="st0" d="M180.6,83.3c0,1.3-1,2.3-2.3,2.3h-3.8v-8.4h3.8c1.3,0,2.3,1,2.3,2.3c0,0.8-0.4,1.5-1,1.9
	C180.2,81.9,180.6,82.6,180.6,83.3z M179.8,79.6c0-0.8-0.7-1.5-1.5-1.5h-3v3h3C179.1,81.1,179.8,80.4,179.8,79.6L179.8,79.6z
	 M179.8,83.3c0-0.8-0.7-1.5-1.5-1.5h-3v3h3C179.1,84.8,179.8,84.2,179.8,83.3L179.8,83.3z"/>
<path class="st0" d="M188.6,77.3v5.2c0,1.8-1.4,3.3-3.2,3.3s-3.2-1.5-3.2-3.3v-5.2h0.8v5.2c0,1.4,1.1,2.5,2.5,2.5
	c1.4,0,2.5-1.1,2.5-2.5v-5.2H188.6L188.6,77.3z"/>
<path class="st0" d="M190.3,85.6v-8.3h0.8v8.3H190.3z"/>
<path class="st0" d="M199.1,84.9v0.8h-6.2v-8.4h0.8v7.6H199.1z"/>
<path class="st0" d="M206.7,81.5c0,2.3-1.9,4.2-4.2,4.2h-2.3v-8.4h2.3C204.8,77.3,206.7,79.1,206.7,81.5z M205.9,81.5
	c0-1.9-1.5-3.4-3.4-3.4H201v6.8h1.5C204.4,84.9,205.9,83.3,205.9,81.5L205.9,81.5z"/>
<path class="st0" d="M208.1,85.6v-8.3h0.8v8.3H208.1z"/>
<path class="st0" d="M217.2,77.3v8.3h-0.6l-5.1-6.8v6.8h-0.8v-8.3h0.6l5.1,6.8v-6.8H217.2z"/>
<path class="st0" d="M226.5,81.1v2.4l-0.1,0.1c-0.3,0.5-0.7,1-1.2,1.4c-0.7,0.5-1.5,0.8-2.4,0.8c-2.3,0-4.2-1.9-4.2-4.3
	s1.9-4.3,4.2-4.3c1.2,0,2.3,0.5,3.1,1.5l0.1,0.1l-0.6,0.5l-0.1-0.1c-0.6-0.8-1.6-1.2-2.5-1.2c-1.9,0-3.4,1.6-3.4,3.5
	c0,1.9,1.5,3.5,3.4,3.5c0.7,0,1.4-0.2,1.9-0.6c0.4-0.3,0.7-0.6,1-1v-1.4h-1.3v-0.8L226.5,81.1L226.5,81.1z"/>
<path class="st0" d="M86.3,101.5l-0.1,0.2c-1.3,2.1-3.4,3.4-5.8,3.4c-3.8,0-6.8-3.2-6.8-7.2c0-4,3.1-7.2,6.8-7.2
	c1.7,0,3.3,0.7,4.6,1.8l0.2,0.2l-0.9,0.9L84,93.5c-1-1-2.3-1.5-3.7-1.5c-3,0-5.5,2.6-5.5,5.9c0,3.2,2.5,5.9,5.5,5.9
	c1.9,0,3.7-1,4.7-2.8l0.1-0.2L86.3,101.5L86.3,101.5z"/>
<path class="st0" d="M101.7,97.9c0,4-3.2,7.2-7.2,7.2s-7.2-3.2-7.2-7.2c0-4,3.2-7.2,7.2-7.2S101.7,93.9,101.7,97.9z M100.4,97.9
	c0-3.2-2.6-5.9-5.9-5.9c-3.2,0-5.9,2.6-5.9,5.9c0,3.2,2.6,5.9,5.9,5.9C97.8,103.8,100.4,101.2,100.4,97.9z"/>
<path class="st0" d="M115,90.9v14h-1l-8.6-11.4v11.4h-1.3v-14h1l8.6,11.4V90.9H115z"/>
<path class="st0" d="M127.2,101.2c0,2.2-2.2,3.9-5,3.9c-1.7,0-3.2-0.7-4.2-1.8c-0.2-0.2-0.4-0.5-0.5-0.8l-0.1-0.2l1.2-0.5l0.1,0.2
	c0.1,0.2,0.2,0.3,0.3,0.5c0.7,0.8,1.8,1.3,3.1,1.3c2,0,3.7-1.2,3.7-2.6c0-1.6-1.2-2.1-3.7-2.6c-2.1-0.4-4.7-1-4.7-3.8v-0.1
	c0-2.2,2.2-3.9,5-3.9c1.8,0,3.4,0.8,4.3,2L127,93l-1.1,0.8l-0.2-0.2c-0.6-0.9-1.9-1.4-3.3-1.4c-2,0-3.6,1.2-3.6,2.6v0.1
	c0,1.6,1.2,2,3.6,2.5C124.6,97.8,127.2,98.3,127.2,101.2L127.2,101.2z"/>
<path class="st0" d="M134.4,92.2l0.1,12.7l-1.3,0l-0.1-12.7l-4.7,0.1l0-1.3l11.2-0.1l0,1.3L134.4,92.2L134.4,92.2z"/>
<path class="st0" d="M153,104.9h-1.6l-3.3-4.8c-0.2,0-0.3,0-0.5,0h-4.9v4.7h-1.3v-14h6.2c2.6,0,4.6,2.1,4.6,4.6
	c0,1.9-1.1,3.5-2.8,4.3L153,104.9L153,104.9z M142.7,98.9h4.9c1.8,0,3.3-1.5,3.3-3.3s-1.5-3.3-3.3-3.3h-4.9V98.9z"/>
<path class="st0" d="M165.6,90.9v8.7c0,3-2.4,5.5-5.4,5.5c-3,0-5.4-2.5-5.4-5.5v-8.7h1.3v8.7c0,2.3,1.8,4.2,4.1,4.2s4.1-1.9,4.1-4.2
	v-8.7H165.6L165.6,90.9z"/>
<path class="st0" d="M180.6,101.5l-0.1,0.2c-1.2,2.1-3.4,3.4-5.8,3.4c-3.8,0-6.8-3.2-6.8-7.2c0-4,3.1-7.2,6.8-7.2
	c1.7,0,3.3,0.7,4.6,1.8l0.2,0.2l-0.9,0.9l-0.2-0.2c-1-1-2.3-1.5-3.7-1.5c-3,0-5.5,2.6-5.5,5.9c0,3.2,2.5,5.9,5.5,5.9
	c1.9,0,3.7-1,4.7-2.8l0.1-0.2L180.6,101.5L180.6,101.5z"/>
<path class="st0" d="M187.3,92.2l0.1,12.7l-1.3,0l-0.1-12.7l-4.7,0.1l0-1.3l11.2-0.1l0,1.3L187.3,92.2L187.3,92.2z"/>
<path class="st0" d="M194.2,104.9v-14h1.3v14H194.2z"/>
<path class="st0" d="M212.3,97.9c0,4-3.2,7.2-7.2,7.2c-4,0-7.2-3.2-7.2-7.2c0-4,3.2-7.2,7.2-7.2C209.1,90.7,212.3,93.9,212.3,97.9z
	 M211,97.9c0-3.2-2.6-5.9-5.9-5.9c-3.2,0-5.9,2.6-5.9,5.9c0,3.2,2.6,5.9,5.9,5.9C208.4,103.8,211,101.2,211,97.9z"/>
<path class="st0" d="M225.7,90.9v14h-1l-8.6-11.4v11.4h-1.3v-14h1l8.6,11.4V90.9H225.7z"/>
<path class="st0" d="M81.3,110v9h-0.8v-6.4l-2.5,6.4h-1l-2.5-6.4v6.4h-0.8v-9h0.7l3.1,7.9l3.1-7.9H81.3z"/>
<path class="st0" d="M89.8,119h-0.9l-1.1-2.9h-3.4l-1.1,2.9h-0.9l3.3-9h0.8L89.8,119L89.8,119z M87.6,115.3l-1.4-3.8l-1.4,3.8H87.6
	L87.6,115.3z"/>
<path class="st0" d="M92.9,110.9L93,119l-0.8,0l-0.1-8.1l-3,0l0-0.8l7.2-0.1l0,0.8L92.9,110.9L92.9,110.9z"/>
<path class="st0" d="M98.2,110.9v3.2h3.5v0.8h-3.5v3.2h3.8v0.8h-4.7v-9h4.7v0.8L98.2,110.9L98.2,110.9z"/>
<path class="st0" d="M111,119h-1l-2.1-3.1c-0.1,0-0.2,0-0.3,0h-3.2v3h-0.8v-9h4c1.6,0,3,1.3,3,3c0,1.2-0.7,2.3-1.8,2.7L111,119z
	 M104.4,115.1h3.2c1.2,0,2.1-1,2.1-2.1c0-1.2-1-2.1-2.1-2.1h-3.2V115.1z"/>
<path class="st0" d="M112.4,119v-9h0.8v9H112.4z"/>
<path class="st0" d="M121.8,119h-0.9l-1.1-2.9h-3.4l-1.1,2.9h-0.9l3.3-9h0.8L121.8,119L121.8,119z M119.5,115.3l-1.4-3.8l-1.4,3.8
	H119.5L119.5,115.3z"/>
<path class="st0" d="M129.7,118.2v0.8H123v-9h0.8v8.2H129.7z"/>
<path class="st0" d="M136.7,116.6c0,1.4-1.4,2.5-3.2,2.5c-1.1,0-2.1-0.4-2.7-1.1c-0.1-0.2-0.2-0.3-0.3-0.5l-0.1-0.2l0.8-0.4l0.1,0.2
	c0.1,0.1,0.1,0.2,0.2,0.3c0.4,0.5,1.2,0.8,2,0.8c1.3,0,2.3-0.7,2.3-1.7c0-1-0.8-1.3-2.4-1.7c-1.3-0.3-3-0.6-3-2.4v-0.1
	c0-1.4,1.4-2.5,3.2-2.5c1.1,0,2.2,0.5,2.8,1.3l0.1,0.1l-0.7,0.5l-0.1-0.1c-0.4-0.6-1.2-0.9-2.1-0.9c-1.3,0-2.3,0.7-2.3,1.7v0.1
	c0,1,0.7,1.3,2.3,1.6C135,114.4,136.7,114.8,136.7,116.6L136.7,116.6z"/>
<path class="st0" d="M148.2,110.9l0.1,8.1l-0.8,0l-0.1-8.1l-3,0l0-0.8l7.2-0.1l0,0.8L148.2,110.9L148.2,110.9z"/>
<path class="st0" d="M160.1,119h-1l-2.1-3.1c-0.1,0-0.2,0-0.3,0h-3.2v3h-0.8v-9h4c1.6,0,3,1.3,3,3c0,1.2-0.7,2.3-1.8,2.7L160.1,119z
	 M153.5,115.1h3.2c1.2,0,2.1-1,2.1-2.1c0-1.2-1-2.1-2.1-2.1h-3.2V115.1z"/>
<path class="st0" d="M168,119h-0.9l-1.1-2.9h-3.4l-1.1,2.9h-0.9l3.3-9h0.8L168,119L168,119z M165.8,115.3l-1.4-3.8l-1.4,3.8H165.8
	L165.8,115.3z"/>
<path class="st0" d="M176.2,114.5c0,2.5-2,4.5-4.5,4.5h-2.5v-9h2.5C174.2,110,176.2,112,176.2,114.5L176.2,114.5z M175.4,114.5
	c0-2-1.6-3.7-3.7-3.7h-1.6v7.3h1.6C173.7,118.2,175.4,116.5,175.4,114.5L175.4,114.5z"/>
<path class="st0" d="M177.8,119v-9h0.8v9H177.8z"/>
<path class="st0" d="M187.6,110v9h-0.6l-5.5-7.3v7.3h-0.8v-9h0.6l5.5,7.3V110H187.6L187.6,110z"/>
<path class="st0" d="M197.6,114.2v2.5l-0.1,0.1c-0.3,0.6-0.8,1.1-1.3,1.5c-0.8,0.5-1.6,0.8-2.6,0.8c-2.5,0-4.5-2.1-4.5-4.6
	s2-4.6,4.5-4.6c1.3,0,2.5,0.6,3.4,1.6l0.1,0.1l-0.6,0.5l-0.1-0.1c-0.7-0.8-1.7-1.3-2.7-1.3c-2,0-3.7,1.7-3.7,3.8
	c0,2.1,1.6,3.8,3.7,3.8c0.7,0,1.5-0.2,2.1-0.7c0.4-0.3,0.8-0.7,1-1.1V115h-1.4v-0.8H197.6L197.6,114.2z"/>
<path class="st0" d="M209.4,118.2v0.8h-6.7v-9h0.8v8.2H209.4z"/>
<path class="st0" d="M217.3,118.2v0.8h-6.7v-9h0.8v8.2H217.3z"/>
<path class="st0" d="M225.4,116.8l-0.1,0.1c-0.8,1.4-2.2,2.2-3.7,2.2c-2.4,0-4.4-2.1-4.4-4.6c0-2.5,2-4.6,4.4-4.6
	c1.1,0,2.1,0.4,2.9,1.2l0.1,0.1l-0.6,0.6l-0.1-0.1c-0.6-0.6-1.5-1-2.3-1c-1.9,0-3.5,1.7-3.5,3.8c0,2.1,1.6,3.8,3.5,3.8
	c1.2,0,2.4-0.7,3-1.8l0.1-0.1L225.4,116.8L225.4,116.8z"/>
<path class="st1" d="M244,20C109.4,20,1,50.4,1,88c0,37.6,108.4,68,243,68V20z"/>
<path class="st1" d="M53.8,175c173,0,312.2-39,312.2-87S226.8,1,53.8,1V175z"/>
<path class="st1" d="M54,46h273l-0.3,84H54"/>
</svg>
