<?xml version="1.0" encoding="utf-8"?>
<!-- Generator: Adobe Illustrator 26.4.1, SVG Export Plug-In . SVG Version: 6.00 Build 0)  -->
<svg version="1.1" id="Слой_1" xmlns="http://www.w3.org/2000/svg" xmlns:xlink="http://www.w3.org/1999/xlink" x="0px" y="0px"
	 viewBox="0 0 99.2 47.7" style="enable-background:new 0 0 99.2 47.7;" xml:space="preserve">
<g>
	<path d="M63.8,24.8L63.6,25l-0.5-0.7c-0.1,0.1-0.2,0.2-0.4,0.3c-0.2,0.1-0.5,0.2-0.7,0.1c-0.1,0-0.3-0.1-0.4-0.2
		c-0.2-0.2-0.3-0.4-0.3-0.6c0-0.3,0.3-0.6,0.7-0.8l0.1-0.1l-0.2-0.2c-0.1-0.2-0.1-0.4,0-0.5c0.1-0.2,0.3-0.3,0.6-0.2
		c0.2,0.1,0.4,0.2,0.4,0.4c0,0.2-0.1,0.4-0.2,0.5l-0.2,0.1l0.6,0.8c0.1-0.1,0.1-0.1,0.2-0.2l0,0l0.2,0.1l0,0
		c-0.1,0.1-0.2,0.2-0.2,0.3L63.8,24.8z M63,24.1l-0.6-0.9l-0.2,0.1c-0.3,0.2-0.5,0.4-0.6,0.6c0,0.1,0.1,0.3,0.2,0.4
		c0.1,0.1,0.2,0.1,0.3,0.1c0.2,0,0.4,0,0.5-0.1C62.8,24.3,62.9,24.2,63,24.1L63,24.1z M62.3,22.7l0.2,0.2l0.3-0.1
		c0.1,0,0.1-0.1,0.1-0.2c0-0.1-0.1-0.2-0.2-0.2c-0.1,0-0.3,0-0.3,0.1C62.2,22.5,62.2,22.6,62.3,22.7L62.3,22.7z"/>
	<path d="M23,17.6c0,1.2-1,2.1-2.1,2.1h-1.2v-4.3h1.2C22.1,15.5,23,16.4,23,17.6z M22.6,17.6c0-1-0.8-1.7-1.7-1.7h-0.8v3.5h0.8
		C21.9,19.4,22.6,18.6,22.6,17.6L22.6,17.6z"/>
	<path d="M24.2,15.9v1.5h1.7v0.4h-1.7v1.5H26v0.4h-2.2v-4.3H26v0.4H24.2z"/>
	<path d="M30.9,15.5l-2.1,4.3h-0.4l-2.1-4.3h0.4l1.8,3.7l1.8-3.7H30.9L30.9,15.5z"/>
	<path d="M31.8,15.9v1.5h1.7v0.4h-1.7v1.5h1.8v0.4h-2.2v-4.3h2.2v0.4H31.8z"/>
	<path d="M37.6,19.4v0.4h-3.2v-4.3h0.4v3.9H37.6z"/>
	<path d="M41.9,17.6c0,1.2-1,2.2-2.2,2.2c-1.2,0-2.2-1-2.2-2.2c0-1.2,1-2.2,2.2-2.2C40.9,15.4,41.9,16.4,41.9,17.6z M41.5,17.6
		c0-1-0.8-1.8-1.8-1.8c-1,0-1.8,0.8-1.8,1.8c0,1,0.8,1.8,1.8,1.8C40.7,19.4,41.5,18.6,41.5,17.6z"/>
	<path d="M46.1,17c0,0.8-0.7,1.5-1.5,1.5l-1.5,0v1.2h-0.4v-4.3h0.4h1.5C45.4,15.5,46.1,16.2,46.1,17L46.1,17z M44.6,18.1
		c0.6,0,1.1-0.5,1.1-1.1c0-0.6-0.5-1.1-1.1-1.1h-1.5v2.3L44.6,18.1L44.6,18.1z"/>
	<path d="M50.4,15.5v4.3H50v-3l-1.2,3h-0.5l-1.2-3v3h-0.4v-4.3h0.3l1.5,3.8l1.5-3.8H50.4z"/>
	<path d="M51.8,15.9v1.5h1.7v0.4h-1.7v1.5h1.8v0.4h-2.2v-4.3h2.2v0.4H51.8z"/>
	<path d="M57.6,15.5v4.3h-0.3l-2.6-3.5v3.5h-0.4v-4.3h0.3l2.6,3.5v-3.5H57.6z"/>
	<path d="M60.1,15.9l0,3.9l-0.4,0l0-3.9l-1.4,0l0-0.4l3.4,0l0,0.4L60.1,15.9z"/>
	<path d="M21.4,22.6c0,0.3-0.3,0.6-0.6,0.6h-1V21h1c0.3,0,0.6,0.3,0.6,0.6c0,0.2-0.1,0.4-0.3,0.5C21.3,22.2,21.4,22.4,21.4,22.6z
		 M21.2,21.6c0-0.2-0.2-0.4-0.4-0.4H20V22h0.8C21,22,21.2,21.8,21.2,21.6L21.2,21.6z M21.2,22.6c0-0.2-0.2-0.4-0.4-0.4H20V23h0.8
		C21,23,21.2,22.8,21.2,22.6L21.2,22.6z"/>
	<path d="M25.9,23.2V21h0.2v2.3H25.9z"/>
	<path d="M25.5,22.6c0,0.3-0.4,0.6-0.8,0.6c-0.3,0-0.5-0.1-0.7-0.3c0,0-0.1-0.1-0.1-0.1l0,0l0.2-0.1l0,0c0,0,0,0.1,0.1,0.1
		c0.1,0.1,0.3,0.2,0.5,0.2c0.3,0,0.6-0.2,0.6-0.4c0-0.3-0.2-0.3-0.6-0.4C24.4,22.1,24,22,24,21.6v0c0-0.3,0.4-0.6,0.8-0.6
		c0.3,0,0.6,0.1,0.7,0.3l0,0l-0.2,0.1l0,0c-0.1-0.1-0.3-0.2-0.5-0.2c-0.3,0-0.6,0.2-0.6,0.4v0c0,0.3,0.2,0.3,0.6,0.4
		C25.1,22.1,25.5,22.1,25.5,22.6L25.5,22.6z"/>
	<path d="M23.6,21v1.4c0,0.5-0.4,0.9-0.9,0.9c-0.5,0-0.9-0.4-0.9-0.9V21H22v1.4c0,0.4,0.3,0.7,0.7,0.7c0.4,0,0.7-0.3,0.7-0.7V21
		H23.6z"/>
	<path d="M28.4,21v2.3h-0.2l-1.4-1.8v1.8h-0.2V21h0.2l1.4,1.8V21H28.4z"/>
	<path d="M29.1,21.2V22H30v0.2h-0.9V23h1v0.2h-1.2V21H30v0.2L29.1,21.2L29.1,21.2z"/>
	<path d="M31.9,22.6c0,0.3-0.4,0.6-0.8,0.6c-0.3,0-0.5-0.1-0.7-0.3c0,0-0.1-0.1-0.1-0.1l0,0l0.2-0.1l0,0c0,0,0,0.1,0.1,0.1
		c0.1,0.1,0.3,0.2,0.5,0.2c0.3,0,0.6-0.2,0.6-0.4c0-0.3-0.2-0.3-0.6-0.4c-0.3-0.1-0.8-0.2-0.8-0.6v0c0-0.3,0.4-0.6,0.8-0.6
		c0.3,0,0.6,0.1,0.7,0.3l0,0l-0.2,0.1l0,0c-0.1-0.1-0.3-0.2-0.5-0.2c-0.3,0-0.6,0.2-0.6,0.4v0c0,0.3,0.2,0.3,0.6,0.4
		C31.4,22.1,31.9,22.1,31.9,22.6L31.9,22.6z"/>
	<path d="M33.7,22.6c0,0.3-0.4,0.6-0.8,0.6c-0.3,0-0.5-0.1-0.7-0.3c0,0-0.1-0.1-0.1-0.1l0,0l0.2-0.1l0,0c0,0,0,0.1,0.1,0.1
		c0.1,0.1,0.3,0.2,0.5,0.2c0.3,0,0.6-0.2,0.6-0.4c0-0.3-0.2-0.3-0.6-0.4c-0.3-0.1-0.8-0.2-0.8-0.6v0c0-0.3,0.4-0.6,0.8-0.6
		c0.3,0,0.6,0.1,0.7,0.3l0,0l-0.2,0.1l0,0c-0.1-0.1-0.3-0.2-0.5-0.2c-0.3,0-0.6,0.2-0.6,0.4v0c0,0.3,0.2,0.3,0.6,0.4
		C33.3,22.1,33.7,22.1,33.7,22.6L33.7,22.6z"/>
	<path d="M36.4,22.6c0,0.3-0.4,0.6-0.8,0.6c-0.3,0-0.5-0.1-0.7-0.3c0,0-0.1-0.1-0.1-0.1l0,0l0.2-0.1l0,0c0,0,0,0.1,0.1,0.1
		c0.1,0.1,0.3,0.2,0.5,0.2c0.3,0,0.6-0.2,0.6-0.4c0-0.3-0.2-0.3-0.6-0.4c-0.3-0.1-0.8-0.2-0.8-0.6v0c0-0.3,0.4-0.6,0.8-0.6
		c0.3,0,0.6,0.1,0.7,0.3l0,0l-0.2,0.1l0,0c-0.1-0.1-0.3-0.2-0.5-0.2c-0.3,0-0.6,0.2-0.6,0.4v0c0,0.3,0.2,0.3,0.6,0.4
		C36,22.1,36.4,22.1,36.4,22.6L36.4,22.6z"/>
	<path d="M38.5,21l-0.9,1.2v1.1h-0.2v-1.1L36.5,21h0.3l0.7,1l0.7-1H38.5z"/>
	<path d="M40.2,22.6c0,0.3-0.4,0.6-0.8,0.6c-0.3,0-0.5-0.1-0.7-0.3c0,0-0.1-0.1-0.1-0.1l0,0l0.2-0.1l0,0c0,0,0,0.1,0.1,0.1
		c0.1,0.1,0.3,0.2,0.5,0.2c0.3,0,0.6-0.2,0.6-0.4c0-0.3-0.2-0.3-0.6-0.4c-0.3-0.1-0.8-0.2-0.8-0.6v0c0-0.3,0.4-0.6,0.8-0.6
		c0.3,0,0.6,0.1,0.7,0.3l0,0L40,21.4l0,0c-0.1-0.1-0.3-0.2-0.5-0.2c-0.3,0-0.6,0.2-0.6,0.4v0c0,0.3,0.2,0.3,0.6,0.4
		C39.7,22.1,40.2,22.1,40.2,22.6L40.2,22.6z"/>
	<path d="M41.3,21.2l0,2l-0.2,0l0-2l-0.8,0l0-0.2l1.8,0l0,0.2L41.3,21.2z"/>
	<path d="M42.6,21.2V22h0.9v0.2h-0.9V23h1v0.2h-1.2V21h1.2v0.2L42.6,21.2L42.6,21.2z"/>
	<path d="M45.9,21v2.3h-0.2v-1.6l-0.6,1.6h-0.2l-0.6-1.6v1.6H44V21h0.2l0.8,2l0.8-2H45.9z"/>
	<path d="M48.9,22.6c0,0.3-0.3,0.6-0.6,0.6h-1V21h1c0.3,0,0.6,0.3,0.6,0.6c0,0.2-0.1,0.4-0.3,0.5C48.8,22.2,48.9,22.4,48.9,22.6z
		 M48.7,21.6c0-0.2-0.2-0.4-0.4-0.4h-0.8V22h0.8C48.5,22,48.7,21.8,48.7,21.6L48.7,21.6z M48.7,22.6c0-0.2-0.2-0.4-0.4-0.4h-0.8V23
		h0.8C48.5,23,48.7,22.8,48.7,22.6L48.7,22.6z"/>
	<path d="M51.1,21v1.4c0,0.5-0.4,0.9-0.9,0.9s-0.9-0.4-0.9-0.9V21h0.2v1.4c0,0.4,0.3,0.7,0.7,0.7s0.7-0.3,0.7-0.7V21H51.1L51.1,21z"
		/>
	<path d="M51.6,23.2V21h0.2v2.3H51.6z"/>
	<path d="M54,23v0.2h-1.7V21h0.2V23H54z"/>
	<path d="M56,22.1c0,0.6-0.5,1.1-1.1,1.1h-0.6V21h0.6C55.5,21,56,21.5,56,22.1z M55.8,22.1c0-0.5-0.4-0.9-0.9-0.9h-0.4V23h0.4
		C55.4,23,55.8,22.6,55.8,22.1L55.8,22.1z"/>
	<path d="M56.4,23.2V21h0.2v2.3H56.4z"/>
	<path d="M58.8,21v2.3h-0.2l-1.4-1.8v1.8h-0.2V21h0.2l1.4,1.8V21H58.8z"/>
	<path d="M61.4,22v0.6l0,0c-0.1,0.1-0.2,0.3-0.3,0.4c-0.2,0.1-0.4,0.2-0.6,0.2c-0.6,0-1.1-0.5-1.1-1.2c0-0.6,0.5-1.2,1.1-1.2
		c0.3,0,0.6,0.1,0.8,0.4l0,0l-0.2,0.1l0,0c-0.2-0.2-0.4-0.3-0.7-0.3c-0.5,0-0.9,0.4-0.9,0.9c0,0.5,0.4,0.9,0.9,0.9
		c0.2,0,0.4-0.1,0.5-0.2c0.1-0.1,0.2-0.2,0.3-0.3v-0.4h-0.4V22L61.4,22L61.4,22z"/>
	<path d="M23.4,27.5L23.4,27.5c-0.4,0.6-1,1-1.6,1c-1,0-1.8-0.9-1.8-1.9c0-1.1,0.8-1.9,1.8-1.9c0.5,0,0.9,0.2,1.2,0.5l0.1,0
		l-0.2,0.3l-0.1,0c-0.3-0.3-0.6-0.4-1-0.4c-0.8,0-1.5,0.7-1.5,1.6c0,0.9,0.7,1.6,1.5,1.6c0.5,0,1-0.3,1.3-0.8l0-0.1L23.4,27.5
		L23.4,27.5z"/>
	<path d="M27.6,26.5c0,1.1-0.9,1.9-1.9,1.9s-1.9-0.9-1.9-1.9c0-1.1,0.9-1.9,1.9-1.9S27.6,25.5,27.6,26.5z M27.2,26.5
		c0-0.9-0.7-1.6-1.6-1.6c-0.9,0-1.6,0.7-1.6,1.6c0,0.9,0.7,1.6,1.6,1.6C26.5,28.1,27.2,27.4,27.2,26.5z"/>
	<path d="M31.2,24.6v3.8h-0.3l-2.3-3.1v3.1h-0.4v-3.8h0.3l2.3,3.1v-3.1H31.2z"/>
	<path d="M34.5,27.4c0,0.6-0.6,1.1-1.3,1.1c-0.5,0-0.9-0.2-1.1-0.5c-0.1-0.1-0.1-0.1-0.1-0.2l0-0.1l0.3-0.1l0,0.1
		c0,0,0.1,0.1,0.1,0.1c0.2,0.2,0.5,0.3,0.9,0.3c0.5,0,1-0.3,1-0.7c0-0.4-0.3-0.6-1-0.7c-0.6-0.1-1.3-0.3-1.3-1v0
		c0-0.6,0.6-1.1,1.3-1.1c0.5,0,0.9,0.2,1.2,0.5l0,0.1l-0.3,0.2l0-0.1c-0.2-0.2-0.5-0.4-0.9-0.4c-0.5,0-1,0.3-1,0.7v0
		c0,0.4,0.3,0.5,1,0.7C33.8,26.5,34.5,26.7,34.5,27.4L34.5,27.4z"/>
	<path d="M36.4,25l0,3.4l-0.4,0l0-3.4l-1.3,0l0-0.4l3,0l0,0.4L36.4,25L36.4,25z"/>
	<path d="M41.5,28.4H41l-0.9-1.3c0,0-0.1,0-0.1,0h-1.3v1.3h-0.4v-3.8H40c0.7,0,1.3,0.6,1.3,1.3c0,0.5-0.3,1-0.8,1.2L41.5,28.4
		L41.5,28.4z M38.7,26.8H40c0.5,0,0.9-0.4,0.9-0.9c0-0.5-0.4-0.9-0.9-0.9h-1.3V26.8z"/>
	<path d="M44.9,24.6V27c0,0.8-0.7,1.5-1.5,1.5c-0.8,0-1.5-0.7-1.5-1.5v-2.4h0.4V27c0,0.6,0.5,1.1,1.1,1.1s1.1-0.5,1.1-1.1v-2.4H44.9
		L44.9,24.6z"/>
	<path d="M48.9,27.5L48.9,27.5c-0.4,0.6-1,1-1.6,1c-1,0-1.8-0.9-1.8-1.9c0-1.1,0.8-1.9,1.8-1.9c0.5,0,0.9,0.2,1.2,0.5l0.1,0
		l-0.2,0.3l-0.1,0c-0.3-0.3-0.6-0.4-1-0.4c-0.8,0-1.5,0.7-1.5,1.6c0,0.9,0.7,1.6,1.5,1.6c0.5,0,1-0.3,1.3-0.8l0-0.1L48.9,27.5
		L48.9,27.5z"/>
	<path d="M50.7,25l0,3.4l-0.4,0l0-3.4l-1.3,0l0-0.4l3,0l0,0.4L50.7,25L50.7,25z"/>
	<path d="M52.6,28.4v-3.8H53v3.8H52.6z"/>
	<path d="M57.5,26.5c0,1.1-0.9,1.9-1.9,1.9c-1.1,0-1.9-0.9-1.9-1.9c0-1.1,0.9-1.9,1.9-1.9C56.7,24.6,57.5,25.5,57.5,26.5z
		 M57.2,26.5c0-0.9-0.7-1.6-1.6-1.6c-0.9,0-1.6,0.7-1.6,1.6c0,0.9,0.7,1.6,1.6,1.6C56.5,28.1,57.2,27.4,57.2,26.5z"/>
	<path d="M61.1,24.6v3.8h-0.3l-2.3-3.1v3.1h-0.4v-3.8h0.3l2.3,3.1v-3.1H61.1z"/>
	<path d="M22.1,29.8v2.4h-0.2v-1.7l-0.7,1.7h-0.3l-0.7-1.7v1.7H20v-2.4h0.2L21,32l0.8-2.2H22.1z"/>
	<path d="M24.4,32.2h-0.2l-0.3-0.8h-0.9l-0.3,0.8h-0.2l0.9-2.4h0.2L24.4,32.2L24.4,32.2z M23.8,31.2l-0.4-1l-0.4,1H23.8L23.8,31.2z"
		/>
	<path d="M25.2,30l0,2.2l-0.2,0l0-2.2l-0.8,0l0-0.2l1.9,0l0,0.2L25.2,30L25.2,30z"/>
	<path d="M26.6,30v0.9h1v0.2h-1V32h1v0.2h-1.3v-2.4h1.3V30L26.6,30L26.6,30z"/>
	<path d="M30.1,32.2h-0.3l-0.6-0.8c0,0-0.1,0-0.1,0h-0.9v0.8h-0.2v-2.4h1.1c0.4,0,0.8,0.4,0.8,0.8c0,0.3-0.2,0.6-0.5,0.7L30.1,32.2z
		 M28.3,31.2h0.9c0.3,0,0.6-0.3,0.6-0.6c0-0.3-0.3-0.6-0.6-0.6h-0.9V31.2z"/>
	<path d="M30.5,32.2v-2.4h0.2v2.4H30.5z"/>
	<path d="M33,32.2h-0.2l-0.3-0.8h-0.9l-0.3,0.8h-0.2l0.9-2.4h0.2L33,32.2L33,32.2z M32.4,31.2l-0.4-1l-0.4,1H32.4L32.4,31.2z"/>
	<path d="M35.2,32v0.2h-1.8v-2.4h0.2V32H35.2z"/>
	<path d="M37.1,31.6c0,0.4-0.4,0.7-0.9,0.7c-0.3,0-0.6-0.1-0.7-0.3c0,0-0.1-0.1-0.1-0.1l0,0l0.2-0.1l0,0c0,0,0,0.1,0.1,0.1
		C35.8,32,36,32,36.2,32c0.3,0,0.6-0.2,0.6-0.4c0-0.3-0.2-0.4-0.6-0.4c-0.4-0.1-0.8-0.2-0.8-0.7v0c0-0.4,0.4-0.7,0.9-0.7
		c0.3,0,0.6,0.1,0.7,0.3l0,0l-0.2,0.1l0,0c-0.1-0.2-0.3-0.2-0.6-0.2c-0.3,0-0.6,0.2-0.6,0.4v0c0,0.3,0.2,0.3,0.6,0.4
		C36.6,31,37.1,31.1,37.1,31.6L37.1,31.6z"/>
	<path d="M40.2,30l0,2.2l-0.2,0l0-2.2l-0.8,0l0-0.2l1.9,0l0,0.2L40.2,30L40.2,30z"/>
	<path d="M43.4,32.2h-0.3l-0.6-0.8c0,0-0.1,0-0.1,0h-0.9v0.8h-0.2v-2.4h1.1c0.4,0,0.8,0.4,0.8,0.8c0,0.3-0.2,0.6-0.5,0.7L43.4,32.2z
		 M41.6,31.2h0.9c0.3,0,0.6-0.3,0.6-0.6c0-0.3-0.3-0.6-0.6-0.6h-0.9V31.2z"/>
	<path d="M45.5,32.2h-0.2L45,31.5h-0.9l-0.3,0.8h-0.2l0.9-2.4h0.2L45.5,32.2L45.5,32.2z M44.9,31.2l-0.4-1l-0.4,1H44.9L44.9,31.2z"
		/>
	<path d="M47.8,31c0,0.7-0.5,1.2-1.2,1.2h-0.7v-2.4h0.7C47.2,29.8,47.8,30.4,47.8,31L47.8,31z M47.5,31c0-0.5-0.4-1-1-1h-0.4v2h0.4
		C47.1,32,47.5,31.6,47.5,31L47.5,31z"/>
	<path d="M48.2,32.2v-2.4h0.2v2.4H48.2z"/>
	<path d="M50.8,29.8v2.4h-0.2l-1.5-2v2h-0.2v-2.4h0.2l1.5,2v-2H50.8L50.8,29.8z"/>
	<path d="M53.5,30.9v0.7l0,0c-0.1,0.2-0.2,0.3-0.4,0.4c-0.2,0.1-0.4,0.2-0.7,0.2c-0.7,0-1.2-0.6-1.2-1.2c0-0.7,0.5-1.2,1.2-1.2
		c0.3,0,0.7,0.2,0.9,0.4l0,0l-0.2,0.1l0,0C53,30.1,52.8,30,52.5,30c-0.5,0-1,0.5-1,1c0,0.6,0.4,1,1,1c0.2,0,0.4-0.1,0.6-0.2
		c0.1-0.1,0.2-0.2,0.3-0.3v-0.4h-0.4v-0.2H53.5L53.5,30.9z"/>
	<path d="M56.7,32v0.2h-1.8v-2.4h0.2V32H56.7z"/>
	<path d="M58.9,32v0.2H57v-2.4h0.2V32H58.9z"/>
	<path d="M61,31.6L61,31.6c-0.2,0.4-0.6,0.6-1,0.6c-0.7,0-1.2-0.6-1.2-1.2c0-0.7,0.5-1.2,1.2-1.2c0.3,0,0.6,0.1,0.8,0.3l0,0
		l-0.2,0.2l0,0C60.5,30.1,60.3,30,60,30c-0.5,0-1,0.5-1,1c0,0.6,0.4,1,1,1c0.3,0,0.6-0.2,0.8-0.5l0,0L61,31.6L61,31.6z"/>
</g>
<path d="M66.2,42.4h-0.1c-17.6,0-34.1-1.9-46.6-5.4C7.1,33.5,0.2,28.8,0.2,23.9c0-5,6.9-9.6,19.3-13.1c12.4-3.5,28.9-5.4,46.6-5.4
	h0.1V42.4z M66,5.6c-36.1,0-65.5,8.2-65.5,18.3c0,10.1,29.4,18.2,65.5,18.3V5.6z"/>
<path d="M14.6,47.5h-0.1V0.2h0.1c22.6,0,43.9,2.4,59.8,6.9c16,4.5,24.8,10.4,24.8,16.8c0,6.4-8.8,12.3-24.8,16.8
	C58.5,45.1,37.3,47.5,14.6,47.5z M14.8,0.5v46.8C61.2,47.2,99,36.8,99,23.9C99,11,61.2,0.5,14.8,0.5z"/>
<polygon points="88.6,35.4 14.7,35.4 14.7,35.1 88.3,35.1 88.4,12.6 14.7,12.6 14.7,12.4 88.7,12.4 88.7,12.5 "/>
</svg>
