<?xml version="1.0" encoding="UTF-8"?>
<svg id="_Слой_2" data-name="Слой 2" xmlns="http://www.w3.org/2000/svg" viewBox="0 0 689.6 331.31">
  <defs>
    <style>
      .cls-1 {
        fill: #2d2d2b;
      }
    </style>
  </defs>
  <g id="_Слой_1-2" data-name="Слой 1">
    <g>
      <path class="cls-1" d="M101.43,331.31h-2.44V0h2.44c157.06,0,304.52,17.01,415.23,47.89,111.53,31.12,172.95,72.94,172.95,117.76s-61.42,86.64-172.95,117.76c-110.7,30.88-258.17,47.89-415.23,47.89ZM103.87,4.88V326.42c155.72-.18,301.76-17.1,411.47-47.71,109.23-30.47,169.38-70.62,169.38-113.06s-60.15-82.58-169.38-113.06C405.63,21.99,259.58,5.06,103.87,4.88Z"/>
      <path class="cls-1" d="M461.69,295.38h-2.44c-122.54,0-237.59-13.27-323.97-37.37C48.04,233.67,0,200.88,0,165.66S48.04,97.63,135.28,73.3c86.38-24.1,201.44-37.37,323.97-37.37h2.44V295.38Zm-4.88-254.57c-121.19,.18-234.83,13.37-320.22,37.19C52.89,101.35,4.88,133.3,4.88,165.66s48,64.3,131.7,87.65c85.39,23.82,199.03,37.02,320.22,37.19V40.81Z"/>
      <path class="cls-1" d="M609.26,249.74H98.98V84.2h510.28V249.74Zm-505.4-4.88h500.51V89.08H103.87V244.86Z"/>
    </g>
  </g>
</svg>