<svg width="76" height="26" viewBox="0 0 76 26" fill="none" xmlns="http://www.w3.org/2000/svg">
<g clip-path="url(#clip0_1_9)">
<path fill-rule="evenodd" clip-rule="evenodd" d="M29.1153 3.81415L33.3313 3.81422V9.70596L27.9078 9.70612L27.9066 12.1445L75.7688 12.1573L75.7685 9.70609L64.512 9.70596C64.5014 6.88578 64.436 5.11364 66.5851 4.13493C67.9372 3.61764 72.4762 3.84395 73.9682 3.81398V8.77986e-05L68.316 0C65.1325 0.0151247 62.5828 1.50791 61.2697 4.37893C60.5498 5.95305 60.6855 7.80181 60.6773 9.71237L52.9472 9.7058L52.9489 3.81415L57.1648 3.81398V0.000163055L44.8704 8.77986e-05V3.81381L49.0865 3.81422L49.0949 9.70621L37.1933 9.70596L37.1931 3.81406H41.4094V0.000163055L29.1153 8.77986e-05V3.81415Z" fill="#B6B6B4"/>
<path fill-rule="evenodd" clip-rule="evenodd" d="M60.6789 16.0511C60.718 18.0009 60.5107 19.6117 61.2235 21.305C62.4266 24.1632 65.0539 25.8056 68.3217 25.7917H73.9679L73.9681 21.9784L68.4306 21.9783C66.743 21.9783 65.3451 21.3826 64.7261 19.6605C64.371 18.6727 64.5089 17.1925 64.51 16.0521L75.7687 16.0509L75.7686 13.5996L27.9078 13.5997V16.0509L33.3314 16.0508L33.3311 25.7915L37.1931 25.7913L37.1914 16.0517L49.0858 16.0505L49.086 25.7923L52.9477 25.7919V16.0506L60.6789 16.0511Z" fill="#B6B6B4"/>
<path fill-rule="evenodd" clip-rule="evenodd" d="M21.0741 0.00146484V25.7944H25.0121V0.00146484H21.0741Z" fill="#1D1D1D"/>
<path fill-rule="evenodd" clip-rule="evenodd" d="M12.4328 0.00146484H16.3707V9.70582H18.2959V12.1245H16.3707H12.4328H5.42797H1.48999H0V9.70582H1.48999V0.00146484H5.42797V9.70582H12.4328V0.00146484ZM18.2959 13.6444V16.0503H16.3707V25.7944H12.4328V16.0503H5.42797V25.7944H1.48999V16.0503H0V13.6444H18.2959Z" fill="#B6B6B4"/>
</g>
<defs>
<clipPath id="clip0_1_9">
<rect width="76" height="26" fill="white"/>
</clipPath>
</defs>
</svg>
